<?xml version="1.0" encoding="UTF-8" standalone="no"?>
<!-- Created with Inkscape (http://www.inkscape.org/) -->

<svg
   xmlns:dc="http://purl.org/dc/elements/1.1/"
   xmlns:cc="http://creativecommons.org/ns#"
   xmlns:rdf="http://www.w3.org/1999/02/22-rdf-syntax-ns#"
   xmlns:svg="http://www.w3.org/2000/svg"
   xmlns="http://www.w3.org/2000/svg"
   xmlns:xlink="http://www.w3.org/1999/xlink"
   xmlns:sodipodi="http://sodipodi.sourceforge.net/DTD/sodipodi-0.dtd"
   xmlns:inkscape="http://www.inkscape.org/namespaces/inkscape"
   width="60"
   height="60"
   id="svg6949"
   version="1.1"
   inkscape:version="0.48.1 "
   sodipodi:docname="advanced.svg"
   inkscape:export-filename="D:\Projects\ticketact\_attachments\images\advanced.png"
   inkscape:export-xdpi="90"
   inkscape:export-ydpi="90">
  <defs
     id="defs6951">
    <linearGradient
       id="linearGradient7666">
      <stop
         style="stop-color:#ffaeae;stop-opacity:1;"
         offset="0"
         id="stop7668" />
      <stop
         id="stop7674"
         offset="0.5"
         style="stop-color:#f34545;stop-opacity:1;" />
      <stop
         style="stop-color:#893c3c;stop-opacity:1;"
         offset="1"
         id="stop7670" />
    </linearGradient>
    <linearGradient
       inkscape:collect="always"
       xlink:href="#linearGradient7666"
       id="linearGradient7672"
       x1="13.051461"
       y1="14.626248"
       x2="47.374397"
       y2="45.031841"
       gradientUnits="userSpaceOnUse" />
  </defs>
  <sodipodi:namedview
     id="base"
     pagecolor="#000000"
     bordercolor="#666666"
     borderopacity="1.0"
     inkscape:pageopacity="0"
     inkscape:pageshadow="2"
     inkscape:zoom="11.313709"
     inkscape:cx="53.205199"
     inkscape:cy="21.049536"
     inkscape:document-units="px"
     inkscape:current-layer="layer3"
     showgrid="false"
     inkscape:window-width="1920"
     inkscape:window-height="1018"
     inkscape:window-x="1072"
     inkscape:window-y="832"
     inkscape:window-maximized="1" />
  <metadata
     id="metadata6954">
    <rdf:RDF>
      <cc:Work
         rdf:about="">
        <dc:format>image/svg+xml</dc:format>
        <dc:type
           rdf:resource="http://purl.org/dc/dcmitype/StillImage" />
        <dc:title></dc:title>
      </cc:Work>
    </rdf:RDF>
  </metadata>
  <g
     inkscape:label="Layer 1"
     inkscape:groupmode="layer"
     id="layer1"
     transform="translate(0,-992.36218)"
     style="display:none">
    <path
       sodipodi:type="arc"
       style="fill:none;stroke:#000000;stroke-width:1;stroke-miterlimit:4;stroke-opacity:1;stroke-dasharray:none"
       id="path6959"
       sodipodi:cx="31.75667"
       sodipodi:cy="30.894979"
       sodipodi:rx="9.7858524"
       sodipodi:ry="9.7858524"
       d="m 41.542522,30.894979 a 9.7858524,9.7858524 0 1 1 -19.571704,0 9.7858524,9.7858524 0 1 1 19.571704,0 z"
       transform="matrix(0.82764432,-0.14593603,0.14593603,0.82764432,-0.79191813,1001.4266)" />
    <path
       sodipodi:type="arc"
       style="fill:none;stroke:#000000;stroke-width:1;stroke-miterlimit:4;stroke-opacity:1;stroke-dasharray:none"
       id="path6961"
       sodipodi:cx="32.514286"
       sodipodi:cy="32.031403"
       sodipodi:rx="23.549181"
       sodipodi:ry="23.549181"
       d="m 56.063467,32.031403 a 23.549181,23.549181 0 1 1 -47.0983619,0 23.549181,23.549181 0 1 1 47.0983619,0 z"
       transform="matrix(0.98480776,-0.17364818,0.17364818,0.98480776,-7.5825157,996.46345)" />
    <path
       sodipodi:type="arc"
       style="fill:none;stroke:#000000;stroke-width:1;stroke-linecap:butt;stroke-linejoin:round;stroke-miterlimit:4;stroke-opacity:1;stroke-dasharray:none"
       id="path7471"
       sodipodi:cx="28.284271"
       sodipodi:cy="28.937809"
       sodipodi:rx="20.203051"
       sodipodi:ry="20.203051"
       d="m 48.487322,28.937809 a 20.203051,20.203051 0 1 1 -40.4061014,0 20.203051,20.203051 0 1 1 40.4061014,0 z"
       transform="matrix(0.82864142,-0.14611184,0.14611184,0.82864142,2.3343251,1002.5158)" />
    <path
       style="fill:none;stroke:#000000;stroke-width:1;stroke-linecap:butt;stroke-linejoin:round;stroke-miterlimit:4;stroke-opacity:1;stroke-dasharray:none"
       d="m 12.331417,997.78275 35.337166,49.15885"
       id="path7473"
       inkscape:connector-curvature="0" />
    <path
       inkscape:connector-curvature="0"
       id="path7475"
       d="M -0.12069776,1025.3739 60.120698,1019.3504"
       style="fill:none;stroke:#000000;stroke-width:1;stroke-linecap:butt;stroke-linejoin:round;stroke-miterlimit:4;stroke-opacity:1;stroke-dasharray:none" />
    <path
       style="fill:none;stroke:#000000;stroke-width:1;stroke-linecap:butt;stroke-linejoin:round;stroke-miterlimit:4;stroke-opacity:1;stroke-dasharray:none"
       d="M 17.547863,1049.9533 42.452138,994.77101"
       id="path7488"
       inkscape:connector-curvature="0" />
    <path
       inkscape:connector-curvature="0"
       id="path7490"
       d="m 2.4088447,1009.91 55.1823103,24.9044"
       style="fill:none;stroke:#000000;stroke-width:1;stroke-linecap:butt;stroke-linejoin:round;stroke-miterlimit:4;stroke-opacity:1;stroke-dasharray:none" />
    <path
       style="fill:none;stroke:#000000;stroke-width:1;stroke-linecap:butt;stroke-linejoin:round;stroke-miterlimit:4;stroke-opacity:1;stroke-dasharray:none"
       d="M 5.4205586,1040.0307 54.579442,1004.6936"
       id="path7492"
       inkscape:connector-curvature="0" />
    <path
       inkscape:connector-curvature="0"
       id="path7494"
       d="M 33.011697,1052.4828 26.988304,992.24146"
       style="fill:none;stroke:#000000;stroke-width:1;stroke-linecap:butt;stroke-linejoin:round;stroke-miterlimit:4;stroke-opacity:1;stroke-dasharray:none" />
  </g>
  <g
     inkscape:groupmode="layer"
     id="layer4"
     inkscape:label="Color"
     style="display:inline">
    <path
       style="fill:url(#linearGradient7672);fill-opacity:1;stroke:none"
       d="M 28.03125 6.96875 L 28.03125 11.78125 L 20.09375 16.53125 L 16.34375 11.15625 L 8.125 20.71875 L 14.09375 23.5625 L 12.3125 31.59375 L 6.6875 32.0625 L 10.96875 43.75 L 15.28125 40.53125 L 22.78125 45.34375 L 20.4375 51.4375 L 32.59375 53.75 L 32.6875 47.21875 L 39.8125 44.65625 L 43.40625 48.9375 L 51.25 39.8125 L 46.59375 37.3125 L 46.78125 28.40625 L 53.03125 27.78125 L 49.46875 15.71875 L 43.84375 19.03125 L 37.78125 14.09375 L 39.90625 8.75 L 28.03125 6.96875 z M 29.03125 21.78125 C 35.176351 22.252178 39.672072 27.455854 38.0625 31.84375 C 36.303542 36.717808 27.027805 38.954449 22.875 35 C 20.897126 29.799284 24.312733 22.455592 29.03125 21.78125 z "
       id="path7661" />
  </g>
  <g
     inkscape:groupmode="layer"
     id="layer3"
     inkscape:label="Layer">
    <path
       style="fill:#ffffff;fill-opacity:1;stroke:none"
       d="M 26.996327,6.6675464 C 30.178307,5.3038405 38.133259,4.7356296 40.178818,9.0540318 35.860417,9.167674 32.337508,9.167674 26.996327,6.6675464 z"
       id="path7497"
       inkscape:connector-curvature="0"
       sodipodi:nodetypes="ccc" />
    <path
       style="fill:#ffffff;fill-opacity:1;stroke:none"
       d="m 36.092296,13.300864 c 3.405145,0.624247 8.982625,3.187888 8.297724,7.916929 -3.660299,-2.294279 -5.231343,-2.879452 -8.297724,-7.916929 z"
       id="path7497-8"
       inkscape:connector-curvature="0"
       sodipodi:nodetypes="ccc" />
    <path
       style="fill:#ffffff;fill-opacity:1;stroke:none"
       d="m 48.539763,15.449566 c 4.68355,1.715624 6.500213,8.33339 4.991323,12.272348 -4.130787,-3.460611 -2.395421,-7.335618 -4.991323,-12.272348 z"
       id="path7497-6"
       inkscape:connector-curvature="0"
       sodipodi:nodetypes="ccc" />
    <path
       style="fill:#ffffff;fill-opacity:1;stroke:none"
       d="m 46.490714,27.340874 c 1.60201,3.068918 3.683365,8.230107 -0.466763,10.598515 -0.442096,-4.297216 -1.619453,-5.082487 0.466763,-10.598515 z"
       id="path7497-3"
       inkscape:connector-curvature="0"
       sodipodi:nodetypes="ccc" />
    <path
       style="fill:#ffffff;fill-opacity:1;stroke:none"
       d="m 54.659972,27.235543 c -2.253754,2.627791 -5.703574,3.750747 -9.44469,0.778042 3.825145,-2.007432 3.548415,-0.664887 9.44469,-0.778042 z"
       id="path7497-3-1"
       inkscape:connector-curvature="0"
       sodipodi:nodetypes="ccc" />
    <path
       style="fill:#ffffff;fill-opacity:1;stroke:none"
       d="m 49.897634,15.469849 c -2.162971,2.703008 -4.911146,5.437892 -7.160321,4.98078 2.163583,-2.704725 1.271318,-4.666924 7.160321,-4.98078 z"
       id="path7497-3-0"
       inkscape:connector-curvature="0"
       sodipodi:nodetypes="ccc" />
    <path
       style="fill:#ffffff;fill-opacity:1;stroke:none"
       d="m 39.955274,7.1162444 c 1.60201,3.0689186 0.728668,6.2981896 -3.42146,8.6665966 -0.442096,-4.297215 1.335244,-3.150568 3.42146,-8.6665966 z"
       id="path7497-3-2"
       inkscape:connector-curvature="0"
       sodipodi:nodetypes="ccc" />
    <path
       style="fill:#ffffff;fill-opacity:1;stroke:none"
       d="m 27.762757,5.0959394 c 1.60201,3.0689181 2.546942,6.1845486 -0.0122,8.6665976 -0.442096,-4.2972153 -2.074021,-3.150569 0.0122,-8.6665976 z"
       id="path7497-3-00"
       inkscape:connector-curvature="0"
       sodipodi:nodetypes="ccc" />
    <path
       sodipodi:nodetypes="ccc"
       inkscape:connector-curvature="0"
       id="path7620"
       d="M 11.277936,44.465616 C 8.5059419,42.391793 4.0363804,35.786708 6.7534467,31.856 c 2.2576186,3.683024 4.0190723,6.733953 4.5244893,12.609616 z"
       style="fill:#ffffff;fill-opacity:1;stroke:none" />
    <path
       sodipodi:nodetypes="ccc"
       inkscape:connector-curvature="0"
       id="path7622"
       d="M 12.43104,33.301 C 11.26908,30.039934 10.700519,23.927874 15.138439,22.156496 14.981685,26.473547 15.260432,28.126697 12.43104,33.301 z"
       style="fill:#ffffff;fill-opacity:1;stroke:none" />
    <path
       sodipodi:nodetypes="ccc"
       inkscape:connector-curvature="0"
       id="path7624"
       d="M 8.1213688,21.46902 C 7.2653676,16.555136 12.08819,11.672977 16.253872,11.010235 15.322288,16.317906 11.098751,16.752539 8.1213688,21.46902 z"
       style="fill:#ffffff;fill-opacity:1;stroke:none" />
    <path
       sodipodi:nodetypes="ccc"
       inkscape:connector-curvature="0"
       id="path7626"
       d="m 19.469407,17.293476 c 1.856757,-2.921841 5.2858,-7.3049405 9.411965,-4.895028 -3.500449,2.531475 -3.591836,3.94373 -9.411965,4.895028 z"
       style="fill:#ffffff;fill-opacity:1;stroke:none" />
    <path
       sodipodi:nodetypes="ccc"
       inkscape:connector-curvature="0"
       id="path7628"
       d="m 15.196564,10.290658 c 3.402612,0.637912 6.100029,3.064068 5.396149,7.790321 -3.651058,-2.308956 -2.350016,-2.740573 -5.396149,-7.790321 z"
       style="fill:#ffffff;fill-opacity:1;stroke:none" />
    <path
       sodipodi:nodetypes="ccc"
       inkscape:connector-curvature="0"
       id="path7630"
       d="m 7.448698,20.259359 c 3.42236,0.521684 7.164926,1.534231 7.893643,3.71063 -3.424152,-0.521355 -4.677333,1.232468 -7.893643,-3.71063 z"
       style="fill:#ffffff;fill-opacity:1;stroke:none" />
    <path
       sodipodi:nodetypes="ccc"
       inkscape:connector-curvature="0"
       id="path7632"
       d="m 5.2068755,33.000229 c 1.8567561,-2.92184 5.0900575,-3.780139 9.2162235,-1.370227 -3.50045,2.531475 -3.396095,0.418929 -9.2162235,1.370227 z"
       style="fill:#ffffff;fill-opacity:1;stroke:none" />
    <path
       sodipodi:nodetypes="ccc"
       inkscape:connector-curvature="0"
       id="path7634"
       d="m 9.5497224,44.62831 c 1.8567556,-2.92184 4.0825046,-5.297991 7.5115916,-4.322738 -3.50045,2.531475 -1.691462,3.37144 -7.5115916,4.322738 z"
       style="fill:#ffffff;fill-opacity:1;stroke:none" />
    <path
       sodipodi:nodetypes="ccc"
       inkscape:connector-curvature="0"
       id="path7636"
       d="m 51.736717,38.953205 c -0.409987,3.437529 -3.895377,10.610824 -8.658003,10.22313 2.060783,-3.796667 3.822238,-6.847595 8.658003,-10.22313 z"
       style="fill:#ffffff;fill-opacity:1;stroke:none" />
    <path
       sodipodi:nodetypes="ccc"
       inkscape:connector-curvature="0"
       id="path7638"
       d="m 41.491801,43.599044 c -2.243186,2.636819 -7.252103,6.185237 -11.005122,3.227575 3.817053,-2.022773 5.109349,-3.09075 11.005122,-3.227575 z"
       style="fill:#ffffff;fill-opacity:1;stroke:none" />
    <path
       sodipodi:nodetypes="ccc"
       inkscape:connector-curvature="0"
       id="path7640"
       d="m 33.420052,53.284202 c -3.827549,3.198261 -10.467034,1.462654 -13.123827,-1.813562 5.062371,-1.84706 7.550542,1.593314 13.123827,1.813562 z"
       style="fill:#ffffff;fill-opacity:1;stroke:none" />
    <path
       sodipodi:nodetypes="ccc"
       inkscape:connector-curvature="0"
       id="path7642"
       d="m 24.166199,45.465681 c -3.458767,-0.147078 -8.969164,-0.925166 -8.945202,-5.703487 3.942547,1.765742 5.211289,1.138757 8.945202,5.703487 z"
       style="fill:#ffffff;fill-opacity:1;stroke:none" />
    <path
       sodipodi:nodetypes="ccc"
       inkscape:connector-curvature="0"
       id="path7644"
       d="m 20.180959,52.692248 c -1.148857,-3.265703 -0.396454,-6.814814 4.048541,-8.568362 -0.174085,4.316388 -1.198398,3.405461 -4.048541,8.568362 z"
       style="fill:#ffffff;fill-opacity:1;stroke:none" />
    <path
       sodipodi:nodetypes="ccc"
       inkscape:connector-curvature="0"
       id="path7646"
       d="m 32.739941,54.412338 c -1.259388,-3.224692 -2.25378,-6.972124 -0.733322,-8.691411 1.260569,3.22608 3.406016,3.434456 0.733322,8.691411 z"
       style="fill:#ffffff;fill-opacity:1;stroke:none" />
    <path
       sodipodi:nodetypes="ccc"
       inkscape:connector-curvature="0"
       id="path7648"
       d="m 44.933748,49.944481 c -3.458766,-0.147078 -5.818726,-2.51805 -5.794764,-7.29637 3.942547,1.765741 2.060851,2.731639 5.794764,7.29637 z"
       style="fill:#ffffff;fill-opacity:1;stroke:none" />
    <path
       sodipodi:nodetypes="ccc"
       inkscape:connector-curvature="0"
       id="path7650"
       d="m 52.775876,40.402143 c -3.458766,-0.147077 -6.629447,-0.886556 -7.499397,-4.343859 3.942546,1.765741 3.765484,-0.22087 7.499397,4.343859 z"
       style="fill:#ffffff;fill-opacity:1;stroke:none" />
    <path
       style="fill:#ffffff;fill-opacity:1;stroke:none"
       d="m 28.513831,21.888406 c -5.050763,3.914341 -6.187185,6.818529 -5.808377,12.626906 -2.904188,-5.303301 -4.040611,-10.606601 5.808377,-12.626906 z"
       id="path7654"
       inkscape:connector-curvature="0"
       sodipodi:nodetypes="ccc" />
    <path
       inkscape:connector-curvature="0"
       id="path7656"
       d="M 38.176145,33.18217 C 37.469959,26.831298 32.504149,23.67754 27.350493,20.971886 33.390086,21.259325 41.588204,23.724789 38.176145,33.18217 z"
       style="fill:#ffffff;fill-opacity:1;stroke:none"
       sodipodi:nodetypes="ccc" />
    <path
       style="fill:#ffffff;fill-opacity:1;stroke:none"
       d="m 22.160741,34.793314 c 6.157967,1.706376 11.218678,1.415729 15.64692,-2.362023 -2.512965,5.499483 -8.136857,9.046568 -15.64692,2.362023 z"
       id="path7658"
       inkscape:connector-curvature="0"
       sodipodi:nodetypes="ccc" />
  </g>
</svg>
