<?xml version="1.0" encoding="UTF-8" standalone="no"?>
<!-- Created with Inkscape (http://www.inkscape.org/) -->

<svg
   xmlns:dc="http://purl.org/dc/elements/1.1/"
   xmlns:cc="http://creativecommons.org/ns#"
   xmlns:rdf="http://www.w3.org/1999/02/22-rdf-syntax-ns#"
   xmlns:svg="http://www.w3.org/2000/svg"
   xmlns="http://www.w3.org/2000/svg"
   xmlns:xlink="http://www.w3.org/1999/xlink"
   xmlns:sodipodi="http://sodipodi.sourceforge.net/DTD/sodipodi-0.dtd"
   xmlns:inkscape="http://www.inkscape.org/namespaces/inkscape"
   width="44"
   height="48"
   id="svg3826"
   version="1.1"
   inkscape:version="0.48.1 "
   sodipodi:docname="pin.svg"
   inkscape:export-filename="D:\Projects\ticketact\_attachments\images\pin.png"
   inkscape:export-xdpi="90"
   inkscape:export-ydpi="90">
  <defs
     id="defs3828">
    <linearGradient
       id="linearGradient4555">
      <stop
         style="stop-color:#ffffff;stop-opacity:0.50196081;"
         offset="0"
         id="stop4557" />
      <stop
         id="stop4571"
         offset="0.5"
         style="stop-color:#a2a2a2;stop-opacity:0;" />
      <stop
         id="stop4559"
         offset="1"
         style="stop-color:#464646;stop-opacity:0;" />
    </linearGradient>
    <linearGradient
       id="linearGradient4464">
      <stop
         id="stop4549"
         offset="0"
         style="stop-color:#ffffff;stop-opacity:0.25098041;" />
      <stop
         style="stop-color:#3f3f3f;stop-opacity:0;"
         offset="0.25"
         id="stop4573" />
      <stop
         style="stop-color:#000000;stop-opacity:0.50196081;"
         offset="1"
         id="stop4468" />
    </linearGradient>
    <linearGradient
       id="linearGradient4464-4">
      <stop
         id="stop4549-0"
         offset="0"
         style="stop-color:#ffffff;stop-opacity:0.25098041;" />
      <stop
         style="stop-color:#3f3f3f;stop-opacity:0;"
         offset="0.25"
         id="stop4573-1" />
      <stop
         style="stop-color:#000000;stop-opacity:0.50196081;"
         offset="1"
         id="stop4468-1" />
    </linearGradient>
    <linearGradient
       id="linearGradient4898">
      <stop
         id="stop4900"
         offset="0"
         style="stop-color:#ffffff;stop-opacity:0.25098041;" />
      <stop
         style="stop-color:#3f3f3f;stop-opacity:0;"
         offset="0.25"
         id="stop4902" />
      <stop
         style="stop-color:#000000;stop-opacity:0.50196081;"
         offset="1"
         id="stop4904" />
    </linearGradient>
    <linearGradient
       id="linearGradient4907">
      <stop
         id="stop4909"
         offset="0"
         style="stop-color:#ffffff;stop-opacity:0.25098041;" />
      <stop
         style="stop-color:#3f3f3f;stop-opacity:0;"
         offset="0.25"
         id="stop4911" />
      <stop
         style="stop-color:#000000;stop-opacity:0.50196081;"
         offset="1"
         id="stop4913" />
    </linearGradient>
    <linearGradient
       id="linearGradient4555-6">
      <stop
         style="stop-color:#ffffff;stop-opacity:0.50196081;"
         offset="0"
         id="stop4557-9" />
      <stop
         id="stop4571-3"
         offset="0.5"
         style="stop-color:#a2a2a2;stop-opacity:0;" />
      <stop
         id="stop4559-5"
         offset="1"
         style="stop-color:#464646;stop-opacity:0;" />
    </linearGradient>
    <linearGradient
       id="linearGradient4921">
      <stop
         style="stop-color:#ffffff;stop-opacity:0.50196081;"
         offset="0"
         id="stop4923" />
      <stop
         id="stop4925"
         offset="0.5"
         style="stop-color:#a2a2a2;stop-opacity:0;" />
      <stop
         id="stop4927"
         offset="1"
         style="stop-color:#464646;stop-opacity:0;" />
    </linearGradient>
    <linearGradient
       inkscape:collect="always"
       xlink:href="#linearGradient4464"
       id="linearGradient5180"
       gradientUnits="userSpaceOnUse"
       gradientTransform="translate(0,978.2372)"
       x1="21.235281"
       y1="33.134815"
       x2="21.343304"
       y2="50.724098" />
    <linearGradient
       inkscape:collect="always"
       xlink:href="#linearGradient4464"
       id="linearGradient5182"
       gradientUnits="userSpaceOnUse"
       gradientTransform="translate(0,978.2372)"
       x1="8.7980967"
       y1="28.866747"
       x2="28.200983"
       y2="54.41098" />
    <linearGradient
       inkscape:collect="always"
       xlink:href="#linearGradient4464"
       id="linearGradient5184"
       gradientUnits="userSpaceOnUse"
       x1="28.032883"
       y1="29.761642"
       x2="28.717117"
       y2="63.182667" />
    <linearGradient
       inkscape:collect="always"
       xlink:href="#linearGradient4555"
       id="linearGradient5186"
       gradientUnits="userSpaceOnUse"
       x1="28.032883"
       y1="29.761642"
       x2="28.717117"
       y2="63.182667" />
    <linearGradient
       inkscape:collect="always"
       xlink:href="#linearGradient4555"
       id="linearGradient5188"
       gradientUnits="userSpaceOnUse"
       gradientTransform="translate(0,978.2372)"
       x1="23.547781"
       y1="32.103565"
       x2="26.374554"
       y2="40.349098" />
    <linearGradient
       inkscape:collect="always"
       xlink:href="#linearGradient4464"
       id="linearGradient5253"
       gradientUnits="userSpaceOnUse"
       gradientTransform="translate(0,978.2372)"
       x1="21.235281"
       y1="33.134815"
       x2="21.343304"
       y2="50.724098" />
    <linearGradient
       inkscape:collect="always"
       xlink:href="#linearGradient4464"
       id="linearGradient5255"
       gradientUnits="userSpaceOnUse"
       gradientTransform="translate(0,978.2372)"
       x1="8.7980967"
       y1="28.866747"
       x2="28.200983"
       y2="54.41098" />
    <linearGradient
       inkscape:collect="always"
       xlink:href="#linearGradient4464"
       id="linearGradient5257"
       gradientUnits="userSpaceOnUse"
       x1="28.032883"
       y1="29.761642"
       x2="28.717117"
       y2="63.182667" />
    <linearGradient
       inkscape:collect="always"
       xlink:href="#linearGradient4555"
       id="linearGradient5259"
       gradientUnits="userSpaceOnUse"
       x1="28.032883"
       y1="29.761642"
       x2="28.717117"
       y2="63.182667" />
    <linearGradient
       inkscape:collect="always"
       xlink:href="#linearGradient4555"
       id="linearGradient5261"
       gradientUnits="userSpaceOnUse"
       gradientTransform="translate(0,978.2372)"
       x1="23.547781"
       y1="32.103565"
       x2="26.374554"
       y2="40.349098" />
    <linearGradient
       inkscape:collect="always"
       xlink:href="#linearGradient4555"
       id="linearGradient5265"
       gradientUnits="userSpaceOnUse"
       gradientTransform="matrix(0.46179858,-0.88698482,0.88698482,0.46179858,-27.796783,1032.6554)"
       x1="23.547781"
       y1="32.103565"
       x2="26.374554"
       y2="40.349098" />
    <linearGradient
       inkscape:collect="always"
       xlink:href="#linearGradient4464"
       id="linearGradient5270"
       gradientUnits="userSpaceOnUse"
       gradientTransform="matrix(0.46179858,-0.88698482,0.88698482,0.46179858,-27.796783,1032.6554)"
       x1="8.7980967"
       y1="28.866747"
       x2="28.200983"
       y2="54.41098" />
    <linearGradient
       inkscape:collect="always"
       xlink:href="#linearGradient4464"
       id="linearGradient5274"
       gradientUnits="userSpaceOnUse"
       gradientTransform="matrix(0.46179858,-0.88698482,0.88698482,0.46179858,-27.796783,28.2932)"
       x1="21.235281"
       y1="33.134815"
       x2="21.343304"
       y2="50.724098" />
    <clipPath
       clipPathUnits="userSpaceOnUse"
       id="clipPath3038">
      <path
         id="path3040"
         d="m 0,1004.3622 0,48 44,0 0,-48 -44,0 z m 23.71875,0.625 c 2.724834,-0.01 5.659031,0.6784 8.4375,2.125 5.093859,2.652 8.383876,7.1709 8.96875,11.5938 0.05324,0.4019 0.08582,0.7883 0.09375,1.1875 0.03149,1.5968 -0.315644,3.1592 -1.0625,4.5937 -0.186714,0.3586 -0.397357,0.7058 -0.625,1.0313 -0.07147,0.1018 -0.174705,0.1827 -0.25,0.2812 -0.163317,0.2141 -0.319434,0.4266 -0.5,0.625 -0.02489,0.027 -0.03729,0.067 -0.0625,0.094 -0.243871,0.2617 -0.508993,0.5165 -0.78125,0.75 -0.03413,0.029 -0.0592,0.065 -0.09375,0.094 -0.573599,0.4787 -1.195402,0.8657 -1.875,1.2188 -0.08289,0.043 -0.165707,0.084 -0.25,0.125 -0.359138,0.1756 -0.74226,0.328 -1.125,0.4687 -0.01324,0 -0.01798,0.026 -0.03125,0.031 -0.07131,0.026 -0.146686,0.038 -0.21875,0.062 -0.341,0.1165 -0.706015,0.2232 -1.0625,0.3125 -0.427115,0.1066 -0.866291,0.2145 -1.3125,0.2812 l -0.09375,0.125 c 2.365531,3.5312 3.173121,7.5847 2,11.125 -0.0837,0.2533 -0.176725,0.5023 -0.28125,0.75 -0.104468,0.2473 -0.21826,0.509 -0.34375,0.75 -1.231386,2.3651 -3.304823,4.0677 -5.84375,5.0625 -1.269464,0.4974 -2.637814,0.8081 -4.09375,0.9375 -3.023216,0.2688 -6.35612,-0.2886 -9.5625,-1.7187 l -2.78125,5.3125 c -1.0440746,0.01 -1.7081692,-0.2877 -2.28125,-1.1875 l 2.78125,-5.3125 c -7.3866197,-4.4116 -10.81856457,-12.455 -7.6875,-18.4688 1.9011827,-3.6516 5.8112017,-5.7026 10.34375,-6 -0.01197,-0.02 -0.01939,-0.042 -0.03125,-0.062 -0.248217,-0.4241 -0.456869,-0.8463 -0.65625,-1.2812 -0.182767,-0.3968 -0.359301,-0.7849 -0.5,-1.1875 -0.0034,-0.01 0.0034,-0.022 0,-0.031 -0.25916,-0.7469 -0.423781,-1.4978 -0.53125,-2.25 -0.01055,-0.073 -0.02219,-0.1455 -0.03125,-0.2187 -0.03327,-0.2711 -0.04986,-0.5427 -0.0625,-0.8125 -0.0094,-0.2002 -0.03336,-0.3947 -0.03125,-0.5938 0.0019,-0.1874 0.01899,-0.3764 0.03125,-0.5625 0.02043,-0.3067 0.04472,-0.6041 0.09375,-0.9062 0.02008,-0.1249 0.03744,-0.2511 0.0625,-0.375 0.04898,-0.2401 0.119657,-0.4829 0.1875,-0.7188 0.05985,-0.2092 0.112561,-0.4195 0.1875,-0.625 0.0577,-0.1583 0.120754,-0.313 0.1875,-0.4687 0.08996,-0.2097 0.174643,-0.4203 0.28125,-0.625 1.447282,-2.7799 4.201453,-4.5798 7.46875,-5.25 0.516193,-0.1045 1.053532,-0.1708 1.59375,-0.2188 0.441601,-0.039 0.889611,-0.061 1.34375,-0.062 z"
         style="fill:#ffffff;fill-opacity:1;stroke:none"
         inkscape:connector-curvature="0" />
    </clipPath>
  </defs>
  <sodipodi:namedview
     id="base"
     pagecolor="#ffffff"
     bordercolor="#666666"
     borderopacity="1.0"
     inkscape:pageopacity="0"
     inkscape:pageshadow="2"
     inkscape:zoom="2.8284271"
     inkscape:cx="26.048617"
     inkscape:cy="-37.283075"
     inkscape:document-units="px"
     inkscape:current-layer="layer1"
     showgrid="false"
     inkscape:window-width="1920"
     inkscape:window-height="1018"
     inkscape:window-x="1072"
     inkscape:window-y="832"
     inkscape:window-maximized="1"
     borderlayer="true" />
  <metadata
     id="metadata3831">
    <rdf:RDF>
      <cc:Work
         rdf:about="">
        <dc:format>image/svg+xml</dc:format>
        <dc:type
           rdf:resource="http://purl.org/dc/dcmitype/StillImage" />
        <dc:title></dc:title>
      </cc:Work>
    </rdf:RDF>
  </metadata>
  <g
     inkscape:label="Layer 1"
     inkscape:groupmode="layer"
     id="layer1"
     transform="translate(0,-1004.3622)">
    <path
       style="fill:#ffffff;fill-opacity:1;stroke:none"
       d="M 0 0 L 0 48 L 44 48 L 44 0 L 0 0 z M 23.71875 0.625 C 26.443584 0.61868359 29.377781 1.3034 32.15625 2.75 C 37.250109 5.4020313 40.540126 9.9208678 41.125 14.34375 C 41.178237 14.745702 41.21082 15.132141 41.21875 15.53125 C 41.250237 17.128133 40.903106 18.6905 40.15625 20.125 C 39.969536 20.483625 39.758893 20.830829 39.53125 21.15625 C 39.459784 21.258112 39.356545 21.33896 39.28125 21.4375 C 39.117933 21.651584 38.961816 21.86409 38.78125 22.0625 C 38.756357 22.089864 38.743961 22.129188 38.71875 22.15625 C 38.474879 22.418028 38.209757 22.672773 37.9375 22.90625 C 37.90337 22.935351 37.878304 22.971347 37.84375 23 C 37.270151 23.47869 36.648348 23.865745 35.96875 24.21875 C 35.885861 24.261917 35.803043 24.302484 35.71875 24.34375 C 35.359612 24.519372 34.97649 24.671763 34.59375 24.8125 C 34.580505 24.817343 34.575771 24.838949 34.5625 24.84375 C 34.491187 24.869714 34.415814 24.881504 34.34375 24.90625 C 34.00275 25.022795 33.637735 25.12951 33.28125 25.21875 C 32.854135 25.325401 32.414959 25.433333 31.96875 25.5 L 31.875 25.625 C 34.240531 29.15615 35.048121 33.209672 33.875 36.75 C 33.791303 37.003252 33.698275 37.252268 33.59375 37.5 C 33.489282 37.747329 33.37549 38.008969 33.25 38.25 C 32.018614 40.615125 29.945177 42.317683 27.40625 43.3125 C 26.136786 43.809908 24.768436 44.120566 23.3125 44.25 C 20.289284 44.518766 16.95638 43.961397 13.75 42.53125 L 10.96875 47.84375 C 9.9246754 47.85375 9.2605808 47.55605 8.6875 46.65625 L 11.46875 41.34375 C 4.0821303 36.932181 0.65018543 28.888841 3.78125 22.875 C 5.6824327 19.2234 9.5924517 17.1724 14.125 16.875 C 14.113034 16.854764 14.105607 16.832764 14.09375 16.8125 C 13.845533 16.388401 13.636881 15.966233 13.4375 15.53125 C 13.254733 15.134463 13.078199 14.746374 12.9375 14.34375 C 12.934105 14.334064 12.94087 14.322188 12.9375 14.3125 C 12.67834 13.56563 12.513719 12.814727 12.40625 12.0625 C 12.395702 11.989209 12.384065 11.916996 12.375 11.84375 C 12.341732 11.572698 12.325142 11.301095 12.3125 11.03125 C 12.303088 10.83106 12.279145 10.636604 12.28125 10.4375 C 12.28313 10.250108 12.300243 10.061124 12.3125 9.875 C 12.332929 9.5683073 12.357215 9.2708801 12.40625 8.96875 C 12.42633 8.8438509 12.443695 8.7177172 12.46875 8.59375 C 12.51773 8.3537315 12.588407 8.1109444 12.65625 7.875 C 12.716096 7.6658387 12.768811 7.4554935 12.84375 7.25 C 12.90145 7.0917489 12.964504 6.9370457 13.03125 6.78125 C 13.121214 6.571626 13.205893 6.3610125 13.3125 6.15625 C 14.759782 3.3764262 17.513953 1.5765199 20.78125 0.90625 C 21.297443 0.80178024 21.834782 0.73552586 22.375 0.6875 C 22.816601 0.64810166 23.264611 0.62605273 23.71875 0.625 z "
       transform="translate(0,1004.3622)"
       id="rect5235" />
    <image
       sodipodi:absref="D:\Projects\ticketact\_attachments\images\ticket.png"
       xlink:href="ticket.png"
       y="1000.3622"
       x="-174"
       id="image3920"
       height="276"
       width="400"
       clip-path="url(#clipPath3038)" />
    <g
       id="g4582"
       transform="matrix(0.46179858,-0.88698482,0.88698482,0.46179858,-895.47833,580.9069)">
      <path
         inkscape:connector-curvature="0"
         id="path4446"
         d="m 29.5,1010.1435 -10.125,1.6562 c -3.658886,0 -6.625,3.8379 -6.625,8.5625 0,4.7246 2.966114,8.5625 6.625,8.5625 l 10.71875,1 c -1.960009,-2.7039 -3.1875,-6.3167 -3.1875,-10.3125 0,-3.5839 0.980553,-6.877 2.59375,-9.4687 z"
         style="fill:url(#linearGradient5180);fill-opacity:1;stroke:none" />
      <path
         sodipodi:nodetypes="ccccc"
         inkscape:connector-curvature="0"
         id="rect4579"
         d="m 0.55549565,1019.081 6.07838875,0 0,2.5625 -6.07838875,0 c -0.4876808,-0.9232 -0.5333835,-1.6387 0,-2.5625 z"
         style="fill:#000000;fill-opacity:1;stroke:none" />
      <path
         inkscape:connector-curvature="0"
         id="path3923"
         d="m 19.375,1003.7372 c -7.110666,0 -12.875,7.4433 -12.875,16.625 0,9.1817 5.764334,16.625 12.875,16.625 4.355733,0 8.201339,-2.8188 10.53125,-7.0937 L 19.375,1028.9247 c -3.658886,0 -6.625,-3.8379 -6.625,-8.5625 0,-4.7246 2.966114,-8.5625 6.625,-8.5625 l 10.125,-1.6562 c -2.356841,-3.883 -6.008091,-6.4063 -10.125,-6.4063 z"
         style="fill:url(#linearGradient5182);fill-opacity:1;stroke:none" />
      <path
         sodipodi:type="arc"
         style="fill:url(#linearGradient5184);fill-opacity:1;stroke:none"
         id="path4444"
         sodipodi:cx="28.375"
         sodipodi:cy="46.375"
         sodipodi:rx="12.875"
         sodipodi:ry="16.625"
         d="M 41.25,46.375 C 41.25,55.556734 35.485666,63 28.375,63 21.264334,63 15.5,55.556734 15.5,46.375 c 0,-9.181734 5.764334,-16.625 12.875,-16.625 7.110666,0 12.875,7.443266 12.875,16.625 z"
         transform="matrix(0.90977443,0,0,0.90977443,12.810151,977.42141)" />
      <path
         transform="matrix(0.63516985,0,0,0.63516985,21.397548,990.1562)"
         d="M 41.25,46.375 C 41.25,55.556734 35.485666,63 28.375,63 21.264334,63 15.5,55.556734 15.5,46.375 c 0,-9.181734 5.764334,-16.625 12.875,-16.625 7.110666,0 12.875,7.443266 12.875,16.625 z"
         sodipodi:ry="16.625"
         sodipodi:rx="12.875"
         sodipodi:cy="46.375"
         sodipodi:cx="28.375"
         id="path4551"
         style="fill:url(#linearGradient5186);fill-opacity:1;stroke:none"
         sodipodi:type="arc" />
      <path
         inkscape:connector-curvature="0"
         style="fill:url(#linearGradient5188);fill-opacity:1;stroke:none"
         d="m 29.5,1010.1435 -10.125,1.6562 c -3.658886,0 -6.625,3.8379 -6.625,8.5625 0,4.7246 2.966114,8.5625 6.625,8.5625 l 10.71875,1 c -1.960009,-2.7039 -3.1875,-6.3167 -3.1875,-10.3125 0,-3.5839 0.980553,-6.877 2.59375,-9.4687 z"
         id="path4561" />
      <path
         inkscape:connector-curvature="0"
         id="path4451"
         d="m 19.375,1003.7372 c -7.110666,0 -12.875,7.4433 -12.875,16.625 0,9.1817 5.764334,16.625 12.875,16.625 4.347879,0 8.200123,-2.8009 10.53125,-7.0625 l 0.1875,0.031 c 2.136651,2.9365 5.164572,4.7812 8.53125,4.7812 6.469102,0 11.71875,-6.7717 11.71875,-15.125 0,-8.3533 -5.249648,-15.125 -11.71875,-15.125 -3.693637,0 -6.978129,2.2071 -9.125,5.6563 -2.356841,-3.883 -6.008091,-6.4063 -10.125,-6.4063 z"
         style="fill:none;stroke:#000000;stroke-linejoin:round;stroke-opacity:1" />
    </g>
  </g>
</svg>
